<svg width="36" height="42" viewBox="0 0 36 42" xmlns="http://www.w3.org/2000/svg">
    <defs>
        <linearGradient x1="21.547%" y1="0%" x2="85.607%" y2="100%" id="a">
            <stop stop-color="#60F9FF" offset="0%"/>
            <stop stop-color="#448DFF" offset="100%"/>
        </linearGradient>
    </defs>
    <path d="M17.673 0l17.455 7.493v11.35c0 2.6-.44 5.13-1.325 7.583a24.148 24.148 0 0 1-9.175 11.888 21.011 21.011 0 0 1-6.952 3.051 21.006 21.006 0 0 1-6.955-3.051 24.13 24.13 0 0 1-9.175-11.89A22.228 22.228 0 0 1 .22 18.84V7.496L17.676 0h-.003zm0 20.639V4.082L4.083 9.96v10.679h13.595v16.78a15.892 15.892 0 0 0 5.024-2.4 19.45 19.45 0 0 0 4.038-3.883 21.12 21.12 0 0 0 4.529-10.497H17.673z"
          fill="url(#a)" fill-rule="nonzero"/>
</svg>
