<svg width="27" height="34" viewBox="0 0 27 34" xmlns="http://www.w3.org/2000/svg">
    <path d="M13.489.07c7.678 0 13.256 5.572 13.256 13.255 0 5.397-7.33 14.536-11.263 19.448l-.292.36a2.174 2.174 0 0 1-1.697.813 2.162 2.162 0 0 1-1.697-.812l-.292-.361C7.564 27.86.233 18.722.233 13.325.233 6.016 6.18.069 13.489.069zm-.07 7.3a4.902 4.902 0 0 0-4.897 4.898 4.902 4.902 0 0 0 4.898 4.898 4.902 4.902 0 0 0 4.898-4.898A4.902 4.902 0 0 0 13.42 7.37z"
          fill="#FF643B" fill-rule="nonzero"/>
</svg>
